<?xml version="1.0" encoding="UTF-8"?>
<svg width="80px" height="81px" viewBox="0 0 80 81" version="1.1" xmlns="http://www.w3.org/2000/svg" xmlns:xlink="http://www.w3.org/1999/xlink">
    <!-- Generator: Sketch 45 (43475) - http://www.bohemiancoding.com/sketch -->
    <title>becher-ball</title>
    <desc>Created with Sketch.</desc>
    <defs></defs>
    <g id="Home" stroke="none" stroke-width="1" fill="none" fill-rule="evenodd">
        <g id="€€€-Spiel-des-Lebens" transform="translate(-274.000000, -530.000000)" stroke-width="6" stroke="#E73442" fill="#E73442">
            <g id="Page-1" transform="translate(297.733392, 641.300149) rotate(-345.000000) translate(-297.733392, -641.300149) translate(207.233392, 520.300149)">
                <polygon id="becher-ball" points="118.310783 40.317347 118.310783 28.9355556 110.670786 28.9355556 110.670786 19.1178345 97.8596292 19.1178345 97.8596292 13 88 13 78.1396224 13 78.1396224 19.1178345 65.3292138 19.1178345 65.3292138 28.9355556 57.6892172 28.9355556 57.6892172 40.317347 53 40.317347 53 48 53 55.6834014 58.4375762 55.6834014 58.4375762 67.0651928 65.3292138 67.0651928 65.3292138 76.8821655 78.1396224 76.8821655 78.1396224 83 88 83 97.8596292 83 97.8596292 76.8821655 108.425709 76.8821655 108.425709 67.0651928 118.310783 67.0651928 118.310783 55.6834014 123 55.6834014 123 48 123 40.317347"></polygon>
            </g>
        </g>
    </g>
</svg>