<?xml version="1.0" encoding="UTF-8"?>
<svg width="188px" height="264px" viewBox="0 0 188 264" version="1.1" xmlns="http://www.w3.org/2000/svg" xmlns:xlink="http://www.w3.org/1999/xlink">
    <!-- Generator: Sketch 45 (43475) - http://www.bohemiancoding.com/sketch -->
    <title>becher-basic</title>
    <desc>Created with Sketch.</desc>
    <defs></defs>
    <g id="Home" stroke="none" stroke-width="1" fill="none" fill-rule="evenodd">
        <g id="€€€-Spiel-des-Lebens" transform="translate(-232.000000, -497.000000)">
            <g id="Page-1" transform="translate(297.733392, 641.300149) rotate(-345.000000) translate(-297.733392, -641.300149) translate(207.233392, 520.300149)">
                <g id="becher-basic">
                    <polyline id="Stroke-4" stroke="#000000" stroke-width="6" points="180.997972 13.1724658 180.997972 22.9441553 173.487599 22.9441553 173.487599 33.019472 167.103781 33.019472 167.103781 43.2360807 155.838221 43.2360807 155.838221 55.048236 145.323698 55.048236 145.323698 82.7151491 135.935732 82.7151491 135.935732 101.480671 128.049839 101.480671"></polyline>
                    <polyline id="Stroke-6" stroke="#000000" stroke-width="6" points="52.9479075 101.480671 45.0620154 101.480671 45.0620154 82.7151491 35.6740485 82.7151491 35.6740485 55.048236 25.1595257 55.048236 25.1595257 43.2360807 13.8939656 43.2360807 13.8939656 33.019472 7.51014813 33.019472 7.51014813 22.9441553 -0.000225311203 22.9441553 -0.000225311203 13.1724658"></polyline>
                    <path d="M128.05059,99.2260124 C126.806122,99.2260124 125.797478,100.235348 125.797478,101.480671 L55.2014701,101.480671 C55.2014701,100.235348 54.192827,99.2260124 52.9483581,99.2260124 C51.7038892,99.2260124 50.6952461,100.235348 50.6952461,101.480671 L50.6952461,133.422416 L56.7027938,133.422416 L56.7027938,152.211236 L63.8376485,152.211236 L63.8376485,173.254714 L71.7235407,173.254714 L71.7235407,191.667758 L76.6052834,191.667758 L76.6052834,223.232975 L81.8625448,223.232975 L81.8625448,242 L99.1364037,242 L99.1364037,223.232975 L104.392914,223.232975 L104.392914,191.667758 L109.274657,191.667758 L109.274657,173.254714 L117.160549,173.254714 L117.160549,152.211236 L124.295404,152.211236 L124.295404,133.422416 L130.303702,133.422416 L130.303702,101.480671 C130.303702,100.235348 129.295059,99.2260124 128.05059,99.2260124" id="Fill-8" fill="#3BF850"></path>
                    <path d="M47.2029224,101.480671 L133.795275,101.480671" id="Stroke-10" stroke="#000000" stroke-width="6" stroke-linejoin="round"></path>
                    <path d="M90.3758535,101.480671 C89.9680402,103.931484 90.7979365,106.742292 90.3758535,65.4076398 L80.9878867,65.4076398 L80.9878867,55.048236 L71.9754386,55.048236 L71.9754386,22.9441553 L63.7140278,22.9441553 L63.7140278,0.396068323" id="Stroke-12" stroke="#000000" stroke-width="6"></path>
                    <path d="M62.0597929,101.480671 C61.6512286,103.931484 62.4811249,106.742292 62.0597929,65.4076398 L52.6718261,65.4076398 L52.6718261,55.048236 L43.659378,55.048236 L43.659378,22.9441553 L35.3979672,22.9441553 L35.3979672,0.396068323" id="Stroke-14" stroke="#000000" stroke-width="6"></path>
                    <path d="M90.4990988,112.00241 L90.4990988,0.396068323" id="Stroke-16" stroke="#000000" stroke-width="6"></path>
                    <g id="Group-21" transform="translate(66.091286, 109.726708)">
                        <path d="M0.0401804979,0.470922981 L0.0401804979,18.7870161" id="Fill-18" fill="#000000"></path>
                        <path d="M0.0401804979,0.470922981 L0.0401804979,18.7870161" id="Stroke-20" stroke="#FFFFFF" stroke-width="6"></path>
                    </g>
                    <polyline id="Stroke-22" stroke="#FFFFFF" stroke-width="6" points="74.6447755 137.472234 74.6447755 147.586631 81.4551822 147.586631 81.4551822 162.718395"></polyline>
                    <polyline id="Stroke-24" stroke="#000000" stroke-width="6" points="0.000150207469 13.9240186 0.000150207469 0.396068323 180.997897 0.396068323 180.997897 13.9240186"></polyline>
                    <path d="M7.51052365,22.9445311 L173.487524,22.9445311" id="Stroke-26" stroke="#000000" stroke-width="6"></path>
                    <path d="M167.104157,43.2364565 L13.8940407,43.2364565" id="Stroke-28" stroke="#000000" stroke-width="6"></path>
                    <path d="M145.324074,65.4076398 L35.6741237,65.4076398" id="Stroke-30" stroke="#000000" stroke-width="6"></path>
                    <path d="M145.324074,82.7152994 L35.6741237,82.7152994" id="Stroke-32" stroke="#000000" stroke-width="6"></path>
                    <path d="M90.6222689,101.480671 C91.0300822,103.931484 90.2001859,106.742292 90.6222689,65.4076398 L100.010236,65.4076398 L100.010236,55.048236 L109.022684,55.048236 L109.022684,22.9441553 L117.284095,22.9441553 L117.284095,0.396068323" id="Stroke-34" stroke="#000000" stroke-width="6"></path>
                    <path d="M118.938405,101.480671 C119.346969,103.931484 118.517073,106.742292 118.938405,65.4076398 L128.326371,65.4076398 L128.326371,55.048236 L137.33882,55.048236 L137.33882,22.9441553 L145.60023,22.9441553 L145.60023,0.396068323" id="Stroke-36" stroke="#000000" stroke-width="6"></path>
                </g>
            </g>
        </g>
    </g>
</svg>