<svg xmlns="http://www.w3.org/2000/svg" width="188" height="246" viewBox="0 0 188 246">
  <g fill="none" fill-rule="evenodd" transform="translate(3.233 3.3)">
    <polyline stroke="#000" stroke-width="6" points="180.998 13.172 180.998 22.944 173.488 22.944 173.488 33.019 167.104 33.019 167.104 43.236 155.838 43.236 155.838 55.048 145.324 55.048 145.324 82.715 135.936 82.715 135.936 101.481 128.05 101.481"/>
    <polyline stroke="#000" stroke-width="6" points="52.948 101.481 45.062 101.481 45.062 82.715 35.674 82.715 35.674 55.048 25.16 55.048 25.16 43.236 13.894 43.236 13.894 33.019 7.51 33.019 7.51 22.944 0 22.944 0 13.172"/>
    <path fill="#3BF850" d="M128.05059,99.2260124 C126.806122,99.2260124 125.797478,100.235348 125.797478,101.480671 L55.2014701,101.480671 C55.2014701,100.235348 54.192827,99.2260124 52.9483581,99.2260124 C51.7038892,99.2260124 50.6952461,100.235348 50.6952461,101.480671 L50.6952461,133.422416 L56.7027938,133.422416 L56.7027938,152.211236 L63.8376485,152.211236 L63.8376485,173.254714 L71.7235407,173.254714 L71.7235407,191.667758 L76.6052834,191.667758 L76.6052834,223.232975 L81.8625448,223.232975 L81.8625448,242 L99.1364037,242 L99.1364037,223.232975 L104.392914,223.232975 L104.392914,191.667758 L109.274657,191.667758 L109.274657,173.254714 L117.160549,173.254714 L117.160549,152.211236 L124.295404,152.211236 L124.295404,133.422416 L130.303702,133.422416 L130.303702,101.480671 C130.303702,100.235348 129.295059,99.2260124 128.05059,99.2260124"/>
    <path stroke="#000" stroke-linejoin="round" stroke-width="6" d="M47.2029224,101.480671 L133.795275,101.480671"/>
    <path stroke="#000" stroke-width="6" d="M90.3758535 101.480671C89.9680402 103.931484 90.7979365 106.742292 90.3758535 65.4076398L80.9878867 65.4076398 80.9878867 55.048236 71.9754386 55.048236 71.9754386 22.9441553 63.7140278 22.9441553 63.7140278.396068323M62.0597929 101.480671C61.6512286 103.931484 62.4811249 106.742292 62.0597929 65.4076398L52.6718261 65.4076398 52.6718261 55.048236 43.659378 55.048236 43.659378 22.9441553 35.3979672 22.9441553 35.3979672.396068323M90.4990988 112.00241L90.4990988.396068323"/>
    <g transform="translate(66.091 109.727)">
      <path fill="#000" d="M0.0401804979,0.470922981 L0.0401804979,18.7870161"/>
      <path stroke="#FFF" stroke-width="6" d="M0.0401804979,0.470922981 L0.0401804979,18.7870161"/>
    </g>
    <polyline stroke="#FFF" stroke-width="6" points="74.645 137.472 74.645 147.587 81.455 147.587 81.455 162.718"/>
    <polyline stroke="#000" stroke-width="6" points="0 13.924 0 .396 180.998 .396 180.998 13.924"/>
    <path stroke="#000" stroke-width="6" d="M7.51052365 22.9445311L173.487524 22.9445311M167.104157 43.2364565L13.8940407 43.2364565M145.324074 65.4076398L35.6741237 65.4076398M145.324074 82.7152994L35.6741237 82.7152994M90.6222689 101.480671C91.0300822 103.931484 90.2001859 106.742292 90.6222689 65.4076398L100.010236 65.4076398 100.010236 55.048236 109.022684 55.048236 109.022684 22.9441553 117.284095 22.9441553 117.284095.396068323M118.938405 101.480671C119.346969 103.931484 118.517073 106.742292 118.938405 65.4076398L128.326371 65.4076398 128.326371 55.048236 137.33882 55.048236 137.33882 22.9441553 145.60023 22.9441553 145.60023.396068323"/>
    <polygon stroke="#3BF850" stroke-width="6" points="60.528 117 39.732 117 39.732 124.829 32.843 124.829 32.843 140.899 23 140.899 23 151 66 151"/>
  </g>
</svg>
