<?xml version="1.0" encoding="UTF-8"?>
<svg width="26px" height="26px" viewBox="0 0 26 26" version="1.1" xmlns="http://www.w3.org/2000/svg" xmlns:xlink="http://www.w3.org/1999/xlink">
    <!-- Generator: Sketch 45 (43475) - http://www.bohemiancoding.com/sketch -->
    <title>sound-off</title>
    <desc>Created with Sketch.</desc>
    <defs></defs>
    <g id="Home" stroke="none" stroke-width="1" fill="none" fill-rule="evenodd">
        <g id="€€€-Spiel-des-Lebens" transform="translate(-1639.000000, -22.000000)" fill="#000000">
            <g id="sound-off" transform="translate(1639.000000, 22.000000)">
                <polygon id="Page-1" points="11.1428571 14.8571429 11.1428571 0 14.8571429 0 14.8571429 3.71428571 18.5714286 3.71428571 18.5714286 7.42857143 22.2857143 7.42857143 22.2857143 11.1428571 26 11.1428571 26 14.8571429 22.2857143 14.8571429 22.2857143 18.5714286 18.5714286 18.5714286 18.5714286 14.8571429 22.2857143 14.8571429 22.2857143 11.1428571 18.5714286 11.1428571 18.5714286 7.42857143 14.8571429 7.42857143 14.8571429 22.2857143 11.1428571 22.2857143 11.1428571 26 3.71428571 26 3.71428571 22.2857143 0 22.2857143 0 18.5714286 3.71428571 18.5714286 3.71428571 14.8571429"></polygon>
                <polygon id="Page-1" transform="translate(13.000000, 13.000000) rotate(-270.000000) translate(-13.000000, -13.000000) " points="22.2857143 3.71428571 22.2857143 0 26 0 26 3.71428571 22.2857143 3.71428571 22.2857143 7.42857143 18.5714286 7.42857143 18.5714286 11.1428571 14.8571429 11.1428571 14.8571429 14.8571429 11.1428571 14.8571429 11.1428571 18.5714286 7.42857143 18.5714286 7.42857143 22.2857143 3.71428571 22.2857143 3.71428571 26 0 26 0 22.2857143 3.71428571 22.2857143 3.71428571 18.5714286 7.42857143 18.5714286 7.42857143 14.8571429 11.1428571 14.8571429 11.1428571 11.1428571 14.8571429 11.1428571 14.8571429 7.42857143 18.5714286 7.42857143 18.5714286 3.71428571"></polygon>
            </g>
        </g>
    </g>
</svg>